<svg xmlns="http://www.w3.org/2000/svg" width="106.116" height="129.211" viewBox="0 0 106.116 129.211"><g transform="translate(-62.106 -28.427)"><path d="M162.513,54.343V102.71l-41.887,24.184L78.738,102.71V54.343l41.888-24.184ZM149.081,94.954V62.1L120.626,45.669,92.17,62.1V94.954l28.456,16.428Z" transform="translate(-5.462)" fill="none" stroke="#fff" stroke-miterlimit="10" stroke-width="3"/><g transform="translate(62.106 136.717)"><path d="M71.971,209.595l-5.521-8.686H63.937v8.686H62.106V189.242h6.458a4.863,4.863,0,0,1,1.945.39,4.994,4.994,0,0,1,2.66,2.668,4.894,4.894,0,0,1,.391,1.952V195.9a4.9,4.9,0,0,1-.391,1.952,5,5,0,0,1-2.66,2.668,4.875,4.875,0,0,1-1.945.39l5.521,8.686Zm-.241-15.342a3.156,3.156,0,0,0-.256-1.271,3.366,3.366,0,0,0-.7-1.036,3.23,3.23,0,0,0-1.029-.7,3.161,3.161,0,0,0-1.271-.255H63.937v8.176h4.541a3.15,3.15,0,0,0,1.271-.256,3.228,3.228,0,0,0,1.029-.7,3.377,3.377,0,0,0,.7-1.036,3.149,3.149,0,0,0,.256-1.27Z" transform="translate(-62.106 -188.958)" fill="#fff"/><path d="M101.82,206.688a5.011,5.011,0,0,1-2.661,2.661,4.852,4.852,0,0,1-1.944.391H95.767a4.913,4.913,0,0,1-1.952-.391,5,5,0,0,1-2.668-2.661,4.876,4.876,0,0,1-.39-1.944V193.815a4.876,4.876,0,0,1,.39-1.944,5,5,0,0,1,2.668-2.661,4.913,4.913,0,0,1,1.952-.391h1.448a4.852,4.852,0,0,1,1.944.391,5.012,5.012,0,0,1,2.661,2.661,4.853,4.853,0,0,1,.39,1.944v10.929A4.853,4.853,0,0,1,101.82,206.688Zm-1.44-12.873a3.151,3.151,0,0,0-.256-1.27A3.263,3.263,0,0,0,98.4,190.82a3.146,3.146,0,0,0-1.27-.256H95.852a3.153,3.153,0,0,0-1.27.256,3.381,3.381,0,0,0-1.036.7,3.258,3.258,0,0,0-.7,1.03,3.162,3.162,0,0,0-.255,1.27v10.929a3.16,3.16,0,0,0,.255,1.27,3.325,3.325,0,0,0,1.739,1.739,3.153,3.153,0,0,0,1.27.255h1.277a3.146,3.146,0,0,0,1.27-.255,3.223,3.223,0,0,0,1.03-.7,3.39,3.39,0,0,0,.7-1.036,3.149,3.149,0,0,0,.256-1.27Z" transform="translate(-71.515 -188.819)" fill="#fff"/><path d="M131.443,206.543a4.992,4.992,0,0,1-2.668,2.662,4.92,4.92,0,0,1-1.952.39H120.38V189.242h6.443a4.92,4.92,0,0,1,1.952.39,4.975,4.975,0,0,1,2.668,2.668,4.93,4.93,0,0,1,.392,1.952v.2a4.893,4.893,0,0,1-.739,2.611,5.4,5.4,0,0,1-.837,1.029,4.755,4.755,0,0,1-1.079.774,4.752,4.752,0,0,1,1.079.773,5.324,5.324,0,0,1,.837,1.036,5.033,5.033,0,0,1,.547,1.235,4.944,4.944,0,0,1,.192,1.384V204.6A4.877,4.877,0,0,1,131.443,206.543ZM130,194.252a3.157,3.157,0,0,0-.256-1.271,3.3,3.3,0,0,0-.7-1.036,3.339,3.339,0,0,0-1.036-.7,3.167,3.167,0,0,0-1.27-.255h-4.528V198h4.528a3.166,3.166,0,0,0,1.27-.255,3.338,3.338,0,0,0,1.036-.7,3.3,3.3,0,0,0,.7-1.036,3.157,3.157,0,0,0,.256-1.271Zm0,8.742a3.153,3.153,0,0,0-.256-1.27,3.222,3.222,0,0,0-.7-1.029,3.412,3.412,0,0,0-1.036-.7,3.167,3.167,0,0,0-1.27-.255h-4.528v8.1h4.528a3.166,3.166,0,0,0,1.27-.255,3.412,3.412,0,0,0,1.036-.7,3.226,3.226,0,0,0,.7-1.03A3.146,3.146,0,0,0,130,204.6Z" transform="translate(-81.242 -188.958)" fill="#fff"/><path d="M148.691,209.595V189.242h11.454v1.746h-9.623v7.565h7.791V200.3h-7.791v7.55h9.623v1.746Z" transform="translate(-90.539 -188.958)" fill="#fff"/><path d="M187.874,204.744a4.584,4.584,0,0,1-.418,1.944,5.222,5.222,0,0,1-2.753,2.661,5.008,5.008,0,0,1-1.966.391h-1.462a5.012,5.012,0,0,1-1.966-.391,5.22,5.22,0,0,1-2.754-2.661,4.6,4.6,0,0,1-.418-1.944v-.809l1.831-.3v1.107a2.943,2.943,0,0,0,.277,1.27,3.457,3.457,0,0,0,.745,1.036,3.5,3.5,0,0,0,1.085.7,3.36,3.36,0,0,0,1.3.255h1.277a3.3,3.3,0,0,0,1.291-.255,3.511,3.511,0,0,0,1.079-.7,3.469,3.469,0,0,0,.745-1.036,2.952,2.952,0,0,0,.277-1.27v-.61a3.366,3.366,0,0,0-.412-1.746,3.9,3.9,0,0,0-1.093-1.185,7.127,7.127,0,0,0-1.54-.83q-.857-.341-1.766-.681t-1.767-.752a6.42,6.42,0,0,1-1.54-1.029,4.623,4.623,0,0,1-1.093-1.512,5.262,5.262,0,0,1-.411-2.2v-.383a4.876,4.876,0,0,1,.39-1.944,4.994,4.994,0,0,1,2.668-2.661,4.91,4.91,0,0,1,1.952-.391h1.306a4.848,4.848,0,0,1,1.944.391,5.01,5.01,0,0,1,2.662,2.661,4.853,4.853,0,0,1,.39,1.944v.525l-1.831.3v-.823a3.162,3.162,0,0,0-.255-1.27,3.269,3.269,0,0,0-1.725-1.725,3.151,3.151,0,0,0-1.27-.256h-1.136a3.153,3.153,0,0,0-1.27.256,3.4,3.4,0,0,0-1.036.7,3.256,3.256,0,0,0-.7,1.03,3.151,3.151,0,0,0-.256,1.27v.383a3.084,3.084,0,0,0,.412,1.646,3.883,3.883,0,0,0,1.093,1.142,7.819,7.819,0,0,0,1.54.823q.86.348,1.767.709t1.767.8a6.626,6.626,0,0,1,1.54,1.064,4.724,4.724,0,0,1,1.093,1.54,5.34,5.34,0,0,1,.411,2.214Z" transform="translate(-99.552 -188.819)" fill="#fff"/><path d="M209.612,190.988v18.607h-1.831V190.988h-4.854v-1.746h11.538v1.746Z" transform="translate(-108.349 -188.958)" fill="#fff"/></g></g></svg>